<svg width="996" height="980" fill="none" xmlns="http://www.w3.org/2000/svg"><path fill="#E7EBEE" d="M0 0h996v980H0z"/><g opacity=".25" clip-path="url(#a)"><mask id="b" style="mask-type:luminance" maskUnits="userSpaceOnUse" x="275" y="361" width="445" height="258"><path d="M720 361H275v258h445V361Z" fill="#fff"/></mask><g mask="url(#b)"><mask id="c" style="mask-type:luminance" maskUnits="userSpaceOnUse" x="254" y="296" width="414" height="324"><path d="M254.773 296.797h412.282v322.335H254.773V296.797Z" fill="#fff"/></mask><g mask="url(#c)"><path d="M392.429 554.62c-31.673 3.372-63.472-14.608-80.796-39.088-25.638-36.227-23.007-91.539 9.893-123.778 31.306-30.677 108.503-41.845 102.232-17.915-6.313 24.087-26.864 50.786-6.596 99.348 12.276 29.413 25.355 41.692 18.138 58.632-8.139 19.105-38.613 22.348-42.871 22.801Z" fill="#2EA94A"/><path d="M391.123 415.223c-1.957 0-3.829.561-5.368 1.657-2.445 1.741-3.787 4.632-3.682 7.93.336 10.472 8.764 18.507 10.569 20.111 1.344-1.506 6.201-9.029 6.71-10.017 2.485-4.832 3.12-9.667 1.739-13.267-1.003-2.619-3.044-4.53-6.062-5.68a10.989 10.989 0 0 0-3.906-.734Zm1.535 31.038a.698.698 0 0 1-.422-.139c-.224-.183-10.944-9.036-11.338-21.275-.118-3.698 1.403-6.951 4.175-8.924 2.872-2.046 6.749-2.445 10.374-1.063 3.345 1.276 5.614 3.412 6.742 6.356 1.5 3.912.846 9.097-1.793 14.226-.052.103-6.433 10.561-7.622 10.809a.562.562 0 0 1-.116.01Z" fill="#fff"/><path d="M393.605 445.24a.587.587 0 0 1-.575-.467c-.114-.546-2.771-13.475-.654-22.904a.588.588 0 1 1 1.147.257c-2.061 9.178.629 22.276.657 22.408a.585.585 0 0 1-.575.706Z" fill="#fff"/><path d="M392.43 436.838a.592.592 0 0 1-.423-.18c-.299-.313-7.291-7.679-6.269-12.972a.588.588 0 0 1 1.154.225c-.738 3.816 3.617 9.264 5.31 11.209.94-2.626 3.546-9.426 5.805-10.785a.597.597 0 0 1 .808.201.59.59 0 0 1-.201.808c-1.936 1.161-4.718 8.402-5.627 11.095a.587.587 0 0 1-.557.399ZM403.883 448.706a4.31 4.31 0 0 0-.277.008c-1.683.093-3.192 1.065-4.136 2.67-2.942 4.991-1.595 11.16-1.123 12.904 1.412-.489 5.708-2.479 6.21-2.775 2.66-1.564 4.505-3.768 4.932-5.895.313-1.548-.086-3.076-1.183-4.542-1.136-1.517-2.735-2.37-4.423-2.37Zm-5.989 16.84a.415.415 0 0 1-.149-.022.65.65 0 0 1-.362-.355l-.001-.004a.558.558 0 0 1-.009-.023l.001-.002c-.17-.524-2.524-8.233 1.083-14.353 1.148-1.948 3-3.131 5.084-3.245 2.162-.111 4.289.939 5.706 2.83 1.305 1.745 1.775 3.588 1.396 5.478-.501 2.486-2.501 4.919-5.49 6.676-.057.033-5.991 3.019-7.259 3.02Z" fill="#fff"/><path d="M398.747 465.352a.59.59 0 0 1-.551-.793c.117-.31 2.886-7.627 6.949-11.691a.588.588 0 0 1 .831.83c-3.883 3.887-6.651 11.2-6.678 11.273a.588.588 0 0 1-.551.381Z" fill="#fff"/><path d="M400.81 460.802a.586.586 0 0 1-.576-.471c-.051-.253-1.232-6.241 1.028-8.641a.587.587 0 1 1 .856.805c-1.283 1.362-1.151 4.682-.889 6.642 1.54-1.184 4.656-3.349 6.118-3.338a.588.588 0 0 1 .574.6.588.588 0 0 1-.588.573h-.032c-1.134 0-4.349 2.264-6.121 3.699a.595.595 0 0 1-.37.131ZM390.846 471.539c-.197 0-.399.013-.607.036-1.377.158-2.488.877-3.051 1.975-.528 1.032-.471 2.265.157 3.386 1.915 3.419 5.93 4.846 7.355 5.259.204-1.192.493-4.279.492-4.66-.008-2.177-.689-4.079-1.823-5.085-.68-.605-1.527-.911-2.523-.911Zm4.242 11.952a.547.547 0 0 1-.115-.012h-.003c-.245-.053-6.053-1.332-8.652-5.97-.823-1.47-.886-3.108-.176-4.494.734-1.433 2.216-2.407 3.962-2.606 1.611-.183 2.971.208 4.045 1.161 1.401 1.246 2.209 3.417 2.218 5.96 0 .052-.304 5.351-.884 5.824a.64.64 0 0 1-.395.137Z" fill="#fff"/><path d="M395.271 482.913a.581.581 0 0 1-.454-.217c-.153-.185-3.725-4.59-4.789-8.626a.587.587 0 1 1 1.138-.299c.998 3.792 4.525 8.141 4.56 8.183a.587.587 0 0 1-.455.959Z" fill="#fff"/><path d="M393.186 479.978a.6.6 0 0 1-.19-.031c-.451-.153-4.425-1.569-5.11-3.888a.589.589 0 0 1 1.128-.332c.341 1.155 2.168 2.183 3.456 2.749-.172-1.463-.358-3.928.202-4.839a.585.585 0 0 1 .809-.192c.277.17.362.531.192.808-.338.548-.214 3.047.095 5.05a.59.59 0 0 1-.582.675ZM368.495 429.977c-.997 0-2.04.213-3.12.639-2.388.943-4.104 2.852-4.588 5.105-.463 2.158.246 4.393 1.944 6.135 5.368 5.503 13.757 5.769 15.816 5.764-.077-1.723-1.144-8.018-1.351-8.779-1.062-3.901-3.136-6.871-5.692-8.151a6.634 6.634 0 0 0-3.009-.713Zm9.893 18.817c-2.491 0-10.959-.442-16.499-6.119-1.976-2.027-2.797-4.651-2.25-7.2.565-2.639 2.55-4.865 5.305-5.952 2.543-1.003 4.927-.964 7.087.117 2.854 1.429 5.15 4.671 6.299 8.892.023.087 1.824 9.165 1.234 9.986a.663.663 0 0 1-.474.261h-.003c-.06.003-.305.015-.699.015Z" fill="#fff"/><path d="M379.096 447.712a.585.585 0 0 1-.343-.112c-.341-.246-8.402-6.091-12.028-12.423a.586.586 0 1 1 1.019-.583c3.499 6.109 11.615 11.995 11.696 12.052a.588.588 0 0 1-.344 1.066Z" fill="#fff"/><path d="M374.18 443.645c-.013 0-.025 0-.039-.002-.327-.022-8.019-.572-10.175-4.088a.589.589 0 0 1 1.002-.615c1.435 2.34 6.211 3.176 8.281 3.432-.867-2.095-2.716-6.925-2.16-8.794a.591.591 0 0 1 .731-.396.59.59 0 0 1 .397.73c-.419 1.406 1.311 6.211 2.501 8.909a.59.59 0 0 1-.056.573.59.59 0 0 1-.482.251ZM375.611 454.513c-.773 0-1.504.106-2.175.322-1.685.54-2.961 1.762-3.794 3.63-.895 2.011-.799 4.206.257 5.872 1.011 1.595 2.785 2.536 4.867 2.583 6.559.166 11.806-4.585 13.182-5.947-1.175-1.068-5.527-4.218-6.098-4.551-2.145-1.255-4.32-1.909-6.239-1.909Zm-.548 13.584c-.107 0-.215 0-.322-.004-2.483-.056-4.61-1.196-5.835-3.128-1.267-1.999-1.393-4.608-.337-6.978.975-2.186 2.491-3.624 4.506-4.271 2.657-.853 6.071-.237 9.368 1.692.066.038 6.726 4.549 6.87 5.488a.66.66 0 0 1-.154.514l-.002.004c-.255.275-6.245 6.683-14.094 6.683Z" fill="#fff"/><path d="M380.989 461.415c-2.549 0-5.386-.211-7.833-.901a.586.586 0 0 1-.405-.725.59.59 0 0 1 .726-.405c5.864 1.655 14.446.378 14.533.366a.6.6 0 0 1 .67.492.59.59 0 0 1-.493.669 52.59 52.59 0 0 1-7.198.504Z" fill="#fff"/><path d="M375.112 465.015c-.344 0-.679-.037-1.002-.117a.586.586 0 1 1 .287-1.139c2.06.516 5.301-1.487 7.045-2.803-1.87-.802-5.817-2.636-6.601-4.118a.587.587 0 0 1 1.039-.551c.585 1.108 4.556 3.019 6.922 3.963a.587.587 0 0 1 .164.99c-.196.17-4.445 3.775-7.854 3.775ZM369.513 479.669c-2.287 0-4.303.529-5.808 1.565-1.701 1.171-2.717 2.965-3.018 5.33-.327 2.549.521 4.971 2.264 6.481 1.67 1.446 3.975 1.902 6.318 1.255 7.413-2.046 11.685-9.219 12.681-11.069-1.545-.764-7.584-2.866-8.35-3.052a17.535 17.535 0 0 0-4.087-.51Zm-2.318 16.096c-1.872 0-3.623-.628-5.013-1.832-2.042-1.769-3.038-4.579-2.662-7.518.346-2.71 1.529-4.778 3.519-6.149 2.629-1.808 6.581-2.255 10.837-1.228.086.022 8.921 2.826 9.352 3.734a.66.66 0 0 1 .001.54l-.001.005c-.192.393-4.787 9.671-13.645 12.115a8.957 8.957 0 0 1-2.388.333Z" fill="#fff"/><path d="M365.327 487.584a.587.587 0 0 1-.01-1.173c7.05-.121 16.12-4.389 16.212-4.432a.585.585 0 0 1 .782.28.586.586 0 0 1-.278.782c-.38.18-9.393 4.421-16.697 4.543h-.009Z" fill="#fff"/><path d="M367.817 492.11a.587.587 0 0 1-.026-1.173c2.745-.129 5.78-3.908 7.002-5.598-2.254-.249-7.383-.96-8.754-2.349a.585.585 0 0 1 .006-.83.586.586 0 0 1 .831.006c1.031 1.045 6.079 1.845 9.019 2.103a.59.59 0 0 1 .443.901c-.177.278-4.367 6.748-8.493 6.94h-.028ZM398.487 488.422c-1.998 0-3.759.464-5.073 1.368-1.483 1.02-2.367 2.583-2.631 4.647-.287 2.253.432 4.31 1.972 5.646 1.451 1.257 3.459 1.658 5.5 1.091 6.367-1.758 10.155-7.954 11.09-9.655-1.447-.693-6.618-2.489-7.273-2.647a15.336 15.336 0 0 0-3.585-.45Zm-2.04 14.178c-1.664 0-3.223-.558-4.462-1.63-1.816-1.574-2.701-4.071-2.367-6.682.307-2.408 1.36-4.249 3.128-5.465 2.334-1.605 5.833-2.006 9.602-1.093.075.019 7.882 2.482 8.284 3.327a.65.65 0 0 1 .001.536c-.085.18-4.163 8.532-12.065 10.714a8.017 8.017 0 0 1-2.121.293Z" fill="#fff"/><path d="M394.801 495.394a.586.586 0 0 1-.009-1.173c6.189-.105 14.17-3.858 14.249-3.896a.587.587 0 1 1 .506 1.06c-.336.159-8.288 3.901-14.736 4.009h-.01Z" fill="#fff"/><path d="M396.995 499.382a.588.588 0 0 1-.026-1.174c2.172-.101 4.739-3.012 6.049-4.803-2.046-.233-6.44-.862-7.638-2.077a.586.586 0 1 1 .836-.824c.895.907 5.321 1.605 7.901 1.832a.587.587 0 0 1 .442.901c-.156.244-3.867 5.973-7.536 6.144l-.028.001ZM421.127 499.76a.58.58 0 0 1-.362-.125c-11.452-8.932-25.07-23.132-28.741-53.897a.588.588 0 0 1 1.166-.141c3.621 30.338 17.026 44.32 28.299 53.112a.588.588 0 0 1-.362 1.051Z" fill="#fff"/><path d="M412.716 492.71a.588.588 0 0 1-.535-.342c-.11-.242-10.985-24.4 4.482-34.59a.585.585 0 0 1 .814.168.585.585 0 0 1-.167.812c-14.625 9.637-4.167 32.886-4.06 33.121a.585.585 0 0 1-.534.831ZM397.973 470.178a.582.582 0 0 1-.355-.121c-.105-.08-10.516-8.113-19.337-22.858a.587.587 0 0 1 1.007-.603c8.699 14.542 18.94 22.451 19.044 22.528a.588.588 0 0 1-.359 1.054Z" fill="#fff"/><path d="M417.213 496.935a.586.586 0 0 1-.396-.153c-.208-.189-21.05-18.958-34.599-13.327a.587.587 0 1 1-.451-1.084c14.241-5.92 34.968 12.745 35.842 13.544a.588.588 0 0 1-.396 1.02Z" fill="#fff"/></g><path d="M435.012 451.074V423.69h9.26c2.141 0 3.898.365 5.273 1.096 1.373.722 2.39 1.716 3.05 2.982.661 1.266.99 2.706.99 4.319s-.329 3.044-.99 4.292c-.66 1.248-1.672 2.229-3.037 2.942-1.365.704-3.109 1.056-5.232 1.056h-7.494v-2.995h7.387c1.462 0 2.64-.214 3.533-.642.9-.428 1.551-1.034 1.953-1.818.411-.794.615-1.738.615-2.835 0-1.096-.204-2.055-.615-2.875-.41-.82-1.066-1.453-1.968-1.899-.9-.454-2.091-.682-3.572-.682h-5.835v24.443h-3.318Zm12.9-12.301 6.744 12.301h-3.854l-6.637-12.301h3.747Zm12.327 12.301h-3.479l10.064-27.384h3.425l10.063 27.384h-3.48l-8.189-23.052h-.214l-8.19 23.052Zm1.285-10.697h14.023v2.942h-14.023v-2.942Zm26.375-16.687v27.384h-3.318V423.69h3.318Zm5.156 2.941v-2.941h20.553v2.941h-8.617v24.443h-3.319v-24.443h-8.617Zm25.675 24.443V423.69h3.319v12.194h14.612V423.69h3.319v27.384h-3.319v-12.248h-14.612v12.248h-3.319Zm29.018 0h-3.479l10.062-27.384h3.426l10.064 27.384h-3.481l-8.188-23.052h-.214l-8.19 23.052Zm1.285-10.697h14.024v2.942h-14.024v-2.942Zm24.18 10.697h-3.479l10.062-27.384h3.426l10.064 27.384h-3.479l-8.19-23.052h-.214l-8.19 23.052Zm1.285-10.697h14.023v2.942h-14.023v-2.942Zm44.788-16.687v27.384h-3.213l-14.933-21.501h-.268v21.501h-3.318V423.69h3.211l14.987 21.554h.268V423.69h3.266Zm6.64 27.384V423.69h16.539v2.941h-13.22v9.253h12.364v2.942h-12.364v9.307h13.434v2.941h-16.753ZM450.037 467.738c-.16-1.355-.812-2.407-1.953-3.156-1.143-.749-2.543-1.123-4.203-1.123-1.212 0-2.275.196-3.184.588-.902.393-1.606.932-2.114 1.618-.5.687-.75 1.467-.75 2.34 0 .731.174 1.36.522 1.886.356.517.812.949 1.365 1.297a9.76 9.76 0 0 0 1.74.842 21.52 21.52 0 0 0 1.673.522l2.783.748a24.5 24.5 0 0 1 2.382.776c.883.33 1.726.78 2.528 1.35a6.852 6.852 0 0 1 2.007 2.167c.528.882.79 1.965.79 3.249 0 1.48-.387 2.817-1.164 4.011-.767 1.195-1.891 2.144-3.372 2.849-1.472.704-3.261 1.056-5.367 1.056-1.962 0-3.661-.317-5.097-.949-1.428-.634-2.552-1.516-3.373-2.648-.811-1.132-1.271-2.447-1.378-3.945h3.426c.089 1.035.438 1.891 1.043 2.567.617.669 1.392 1.169 2.329 1.498a9.433 9.433 0 0 0 3.05.482c1.268 0 2.405-.205 3.413-.615 1.009-.42 1.807-.999 2.395-1.738.589-.749.884-1.623.884-2.622 0-.909-.255-1.649-.763-2.219-.509-.571-1.178-1.034-2.007-1.391a21.277 21.277 0 0 0-2.69-.936l-3.372-.963c-2.141-.615-3.836-1.493-5.085-2.634-1.249-1.141-1.873-2.634-1.873-4.479 0-1.533.414-2.871 1.244-4.012.839-1.15 1.962-2.041 3.372-2.674 1.419-.642 3.002-.963 4.75-.963 1.767 0 3.336.317 4.711.95 1.374.624 2.462 1.48 3.265 2.567.812 1.088 1.239 2.322 1.285 3.704h-3.212Zm8.615 28.24v-28.24h3.05v3.263h.375c.232-.357.554-.812.964-1.364.419-.562 1.016-1.061 1.793-1.498.784-.446 1.847-.668 3.184-.668 1.731 0 3.257.432 4.577 1.297 1.32.864 2.35 2.09 3.09 3.677.742 1.586 1.112 3.458 1.112 5.616 0 2.174-.37 4.06-1.112 5.655-.74 1.588-1.765 2.818-3.076 3.691-1.312.865-2.824 1.297-4.537 1.297-1.32 0-2.378-.219-3.171-.655-.794-.446-1.405-.949-1.834-1.511a20.533 20.533 0 0 1-.99-1.417h-.267v10.857h-3.158Zm3.104-17.971c0 1.551.227 2.919.682 4.106.456 1.175 1.119 2.098 1.994 2.767.874.66 1.945.99 3.211.99 1.321 0 2.423-.348 3.306-1.043.892-.705 1.561-1.649 2.007-2.836.456-1.193.683-2.522.683-3.984 0-1.444-.224-2.745-.67-3.904-.437-1.168-1.102-2.091-1.993-2.768-.884-.687-1.994-1.03-3.333-1.03-1.283 0-2.364.326-3.237.976-.875.642-1.535 1.543-1.981 2.701-.446 1.15-.669 2.492-.669 4.025Zm28.208 10.697c-1.855 0-3.483-.441-4.884-1.323-1.392-.882-2.48-2.118-3.266-3.704-.775-1.587-1.163-3.442-1.163-5.563 0-2.139.388-4.007 1.163-5.602.786-1.596 1.874-2.835 3.266-3.718 1.401-.882 3.029-1.323 4.884-1.323 1.856 0 3.48.441 4.871 1.323 1.4.883 2.489 2.122 3.265 3.718.785 1.595 1.178 3.463 1.178 5.602 0 2.121-.393 3.976-1.178 5.563-.776 1.586-1.865 2.822-3.265 3.704-1.391.882-3.015 1.323-4.871 1.323Zm0-2.834c1.41 0 2.57-.362 3.48-1.083.909-.722 1.582-1.672 2.02-2.849.437-1.176.656-2.451.656-3.824 0-1.373-.219-2.652-.656-3.837-.438-1.186-1.111-2.144-2.02-2.875-.91-.731-2.07-1.097-3.48-1.097-1.409 0-2.569.366-3.48 1.097-.909.731-1.582 1.689-2.02 2.875-.437 1.185-.656 2.464-.656 3.837 0 1.373.219 2.648.656 3.824.438 1.177 1.111 2.127 2.02 2.849.911.721 2.071 1.083 3.48 1.083Zm23.073-18.132v2.674h-10.652v-2.674h10.652Zm-7.547-4.921h3.158v19.576c0 .892.129 1.56.389 2.006.266.436.605.731 1.016.882.42.143.861.214 1.325.214.348 0 .633-.018.856-.053l.535-.107.643 2.834a6.294 6.294 0 0 1-.896.241c-.385.09-.87.134-1.459.134a6.373 6.373 0 0 1-2.624-.575 5.22 5.22 0 0 1-2.114-1.752c-.552-.784-.829-1.774-.829-2.968v-20.432Z" fill="#2BA649"/><mask id="d" style="mask-type:luminance" maskUnits="userSpaceOnUse" x="254" y="296" width="414" height="324"><path d="M254.773 296.797h412.282v322.335H254.773V296.797Z" fill="#fff"/></mask><g mask="url(#d)"><path d="M570.65 484.668h-55.687v3.789h55.687v-3.789Z" fill="#2EA849"/></g><path d="m278.358 577.543.372-2.09c.109-.634.333-1.308.674-2.02a10.66 10.66 0 0 1 1.336-2.079 9.265 9.265 0 0 1 1.894-1.752l1.255 1.207a23.251 23.251 0 0 0-1.615 2.183 6.215 6.215 0 0 0-.941 2.414l-.372 2.137h-2.603Zm5.949 0 .372-2.09c.109-.634.333-1.308.674-2.02a10.66 10.66 0 0 1 1.336-2.079 9.239 9.239 0 0 1 1.894-1.752l1.255 1.207a23.251 23.251 0 0 0-1.615 2.183 6.215 6.215 0 0 0-.941 2.414l-.372 2.137h-2.603Zm27.148 4.644c-.419 2.476-1.22 4.616-2.405 6.42-1.185 1.795-2.634 3.182-4.346 4.157a11.128 11.128 0 0 1-5.565 1.451c-2.061 0-3.815-.503-5.264-1.51-1.44-1.014-2.471-2.445-3.09-4.295-.612-1.857-.709-4.056-.291-6.594.419-2.478 1.22-4.613 2.405-6.41 1.186-1.803 2.638-3.188 4.358-4.156 1.719-.975 3.586-1.463 5.6-1.463 2.045 0 3.784.507 5.217 1.521 1.44 1.007 2.467 2.439 3.079 4.296.619 1.85.72 4.044.302 6.583Zm-2.742-.371c.341-2.028.29-3.736-.151-5.121-.442-1.385-1.174-2.434-2.196-3.146-1.023-.712-2.239-1.069-3.649-1.069-1.471 0-2.866.376-4.182 1.127-1.317.744-2.444 1.839-3.382 3.285-.937 1.44-1.576 3.205-1.917 5.295-.34 2.028-.29 3.734.151 5.119.442 1.387 1.174 2.435 2.196 3.148 1.023.712 2.239 1.067 3.649 1.067a8.386 8.386 0 0 0 4.183-1.114c1.316-.751 2.443-1.846 3.381-3.286.937-1.447 1.576-3.216 1.917-5.305Zm9.771 1.346-1.766 10.728h-2.742l2.975-17.833h2.649l-.465 2.787h.232a6.312 6.312 0 0 1 2.266-2.183c.953-.558 2.103-.836 3.451-.836 1.192 0 2.199.247 3.021.743.828.487 1.413 1.23 1.754 2.229.349.991.399 2.245.151 3.762l-1.905 11.331h-2.742l1.859-11.146c.232-1.393.05-2.484-.547-3.274-.588-.789-1.522-1.184-2.8-1.184-.883 0-1.7.19-2.451.568-.744.38-1.375.934-1.894 1.661-.511.728-.86 1.61-1.046 2.647Zm22.067 11.1c-1.712 0-3.125-.38-4.241-1.138-1.115-.767-1.893-1.835-2.335-3.204-.442-1.378-.511-2.981-.209-4.807.302-1.828.902-3.437 1.801-4.83.898-1.401 2.018-2.493 3.358-3.274 1.34-.789 2.811-1.184 4.415-1.184.929 0 1.824.154 2.684.464.86.31 1.603.813 2.231 1.509.627.689 1.065 1.602 1.312 2.74.248 1.138.233 2.539-.046 4.203l-.186 1.161h-13.757l.372-2.368h10.968c.179-1.006.132-1.905-.139-2.694a3.582 3.582 0 0 0-1.383-1.869c-.65-.457-1.475-.685-2.474-.685a5.329 5.329 0 0 0-2.882.836 7.561 7.561 0 0 0-2.231 2.09c-.596.836-.968 1.687-1.115 2.554l-.326 2.044c-.232 1.477-.197 2.654.105 3.528.31.875.848 1.507 1.615 1.893.767.379 1.727.57 2.882.57.735 0 1.413-.101 2.033-.302.62-.21 1.173-.52 1.661-.93a5.356 5.356 0 0 0 1.232-1.555l2.51.743a7.311 7.311 0 0 1-1.801 2.368 8.486 8.486 0 0 1-2.696 1.579c-1.022.371-2.142.558-3.358.558Zm35.839-14.212-2.603.697a4.058 4.058 0 0 0-.488-1.207c-.225-.394-.573-.717-1.046-.964-.464-.256-1.1-.383-1.905-.383-1.092 0-2.041.251-2.847.755-.805.495-1.266 1.126-1.382 1.892-.117.674.038 1.211.464 1.614.426.402 1.139.732 2.138.987l2.556.651c1.534.394 2.626.986 3.277 1.776.658.781.883 1.799.674 3.053-.171 1.021-.616 1.934-1.336 2.739-.721.805-1.643 1.44-2.766 1.905-1.123.464-2.374.697-3.753.697-1.835 0-3.284-.395-4.345-1.184-1.061-.798-1.627-1.952-1.696-3.46l2.742-.651c.069.953.41 1.672 1.022 2.159.62.481 1.487.721 2.603.721 1.278 0 2.343-.271 3.195-.813.852-.55 1.336-1.208 1.452-1.974.116-.626-.007-1.15-.372-1.567-.356-.418-.975-.731-1.859-.94l-2.835-.697c-1.58-.395-2.687-.999-3.323-1.812-.627-.812-.836-1.833-.627-3.064a5.215 5.215 0 0 1 1.301-2.67c.705-.774 1.588-1.382 2.649-1.824 1.069-.441 2.231-.661 3.486-.661 1.766 0 3.087.386 3.962 1.16.875.767 1.429 1.788 1.662 3.065Zm12.865-3.993-.372 2.322h-9.249l.372-2.322h9.249Zm-5.856-4.272h2.742l-2.835 16.997c-.124.774-.105 1.354.058 1.741.17.379.426.634.767.766.348.124.724.186 1.127.186.302 0 .55-.016.743-.047l.465-.092.186 2.461c-.209.07-.492.139-.848.209a6.093 6.093 0 0 1-1.29.117 4.91 4.91 0 0 1-2.184-.5 3.463 3.463 0 0 1-1.569-1.522c-.364-.68-.461-1.539-.29-2.576l2.928-17.74Zm14.181 22.477c-1.642 0-3.018-.391-4.125-1.174-1.108-.781-1.89-1.876-2.347-3.285-.45-1.409-.523-3.049-.221-4.922.294-1.827.879-3.418 1.754-4.772.884-1.363 1.98-2.415 3.288-3.158 1.318-.75 2.766-1.126 4.346-1.126 1.642 0 3.014.395 4.113 1.184 1.108.781 1.891 1.881 2.347 3.297.457 1.409.535 3.058.232 4.946-.293 1.811-.886 3.394-1.777 4.749-.883 1.347-1.979 2.395-3.289 3.145-1.3.744-2.741 1.116-4.321 1.116Zm.046-2.461c1.255 0 2.343-.323 3.265-.965.929-.642 1.681-1.489 2.254-2.543.581-1.052.972-2.19 1.174-3.412.186-1.162.177-2.241-.024-3.24-.201-1.006-.631-1.814-1.29-2.427-.658-.619-1.583-.928-2.777-.928-1.254 0-2.35.325-3.287.975-.93.65-1.682 1.505-2.255 2.566a10.683 10.683 0 0 0-1.15 3.425c-.186 1.162-.182 2.241.012 3.239.201.991.631 1.793 1.289 2.404.666.604 1.596.906 2.789.906Zm10.994 8.776 4.113-24.52h2.649l-.464 2.833h.325c.248-.31.589-.705 1.023-1.184.442-.488 1.034-.922 1.778-1.301.75-.386 1.707-.58 2.87-.58 1.501 0 2.76.376 3.775 1.126 1.015.751 1.731 1.815 2.15 3.192.418 1.378.472 3.003.162 4.877-.31 1.888-.902 3.525-1.778 4.91-.874 1.378-1.944 2.447-3.206 3.206a7.931 7.931 0 0 1-4.124 1.126c-1.147 0-2.034-.191-2.662-.57-.627-.386-1.084-.824-1.371-1.311a17.708 17.708 0 0 1-.661-1.231h-.234l-1.58 9.427h-2.765Zm5.322-15.603c-.217 1.346-.217 2.535 0 3.564.224 1.021.67 1.823 1.335 2.403.675.573 1.561.86 2.662.86 1.146 0 2.149-.302 3.009-.906.867-.611 1.58-1.432 2.138-2.461.565-1.038.957-2.192 1.173-3.46.202-1.255.194-2.384-.023-3.391-.217-1.014-.658-1.814-1.325-2.403-.666-.596-1.58-.894-2.741-.894-1.116 0-2.104.283-2.964.848-.852.557-1.556 1.338-2.114 2.344-.55.999-.933 2.164-1.15 3.496Zm35.887-8.917-.371 2.322h-9.621l.372-2.322h9.62Zm-9.713 17.833 3.393-20.294c.154-1.022.527-1.874 1.116-2.554a5.676 5.676 0 0 1 2.126-1.533 6.569 6.569 0 0 1 2.521-.511c.674 0 1.211.055 1.615.163.41.108.709.208.895.302l-1.163 2.368a27.799 27.799 0 0 0-.557-.175c-.225-.069-.535-.104-.93-.104-.906 0-1.596.228-2.068.685-.472.457-.79 1.127-.952 2.009l-3.254 19.644h-2.742Zm17.214.372c-1.642 0-3.018-.391-4.125-1.174-1.108-.781-1.89-1.876-2.347-3.285-.449-1.409-.523-3.049-.221-4.922.294-1.827.879-3.418 1.755-4.772.883-1.363 1.979-2.415 3.288-3.158 1.317-.75 2.765-1.126 4.345-1.126 1.642 0 3.014.395 4.113 1.184 1.108.781 1.89 1.881 2.348 3.297.457 1.409.534 3.058.232 4.946-.295 1.811-.888 3.394-1.778 4.749-.883 1.347-1.98 2.395-3.289 3.145-1.3.744-2.741 1.116-4.321 1.116Zm.046-2.461c1.254 0 2.343-.323 3.265-.965.929-.642 1.68-1.489 2.254-2.543.58-1.052.972-2.19 1.173-3.412.187-1.162.178-2.241-.023-3.24-.201-1.006-.632-1.814-1.29-2.427-.657-.619-1.583-.928-2.777-.928-1.255 0-2.351.325-3.287.975-.931.65-1.681 1.505-2.255 2.566a10.659 10.659 0 0 0-1.15 3.425c-.186 1.162-.182 2.241.011 3.239.202.991.632 1.793 1.29 2.404.667.604 1.596.906 2.789.906Zm12.109 2.089 2.975-17.833h2.65l-.466 2.694h.186c.465-.884 1.174-1.599 2.126-2.149a5.985 5.985 0 0 1 3.033-.824c.21 0 .461.004.756.012.294 0 .522.011.685.035l-.465 2.786a8.155 8.155 0 0 0-.627-.104 6.277 6.277 0 0 0-1.046-.082c-.867 0-1.669.182-2.405.546a5.174 5.174 0 0 0-1.848 1.486 4.714 4.714 0 0 0-.953 2.148l-1.858 11.285h-2.743Zm28.806.372c-1.642 0-3.016-.391-4.124-1.174-1.107-.781-1.89-1.876-2.347-3.285-.449-1.409-.523-3.049-.22-4.922.293-1.827.879-3.418 1.753-4.772.883-1.363 1.98-2.415 3.289-3.158 1.316-.75 2.765-1.126 4.345-1.126 1.642 0 3.013.395 4.114 1.184 1.107.781 1.889 1.881 2.346 3.297.457 1.409.534 3.058.233 4.946-.295 1.811-.887 3.394-1.779 4.749-.882 1.347-1.978 2.395-3.287 3.145-1.302.744-2.743 1.116-4.323 1.116Zm.047-2.461c1.255 0 2.344-.323 3.265-.965.93-.642 1.681-1.489 2.254-2.543.581-1.052.972-2.19 1.173-3.412.186-1.162.179-2.241-.022-3.24-.202-1.006-.632-1.814-1.29-2.427-.659-.619-1.585-.928-2.777-.928-1.255 0-2.351.325-3.289.975-.929.65-1.68 1.505-2.253 2.566a10.636 10.636 0 0 0-1.151 3.425c-.185 1.162-.182 2.241.012 3.239.201.991.631 1.793 1.29 2.404.666.604 1.595.906 2.788.906Zm12.11 2.089 2.974-17.833h2.649l-.464 2.694h.186c.465-.884 1.173-1.599 2.126-2.149a5.98 5.98 0 0 1 3.033-.824c.208 0 .46.004.754.012.295 0 .524.011.687.035l-.466 2.786a8.063 8.063 0 0 0-.627-.104 6.286 6.286 0 0 0-1.046-.082c-.867 0-1.669.182-2.405.546a5.153 5.153 0 0 0-1.847 1.486 4.694 4.694 0 0 0-.953 2.148l-1.859 11.285h-2.742Zm17.782 7.058c-1.331 0-2.448-.17-3.346-.51-.898-.333-1.618-.774-2.161-1.323-.542-.542-.953-1.122-1.231-1.742l2.463-1.532c.186.324.426.696.72 1.114.295.425.74.794 1.336 1.103.604.317 1.453.476 2.545.476 1.433 0 2.688-.349 3.765-1.046 1.076-.695 1.743-1.786 1.997-3.273l.558-3.622h-.232c-.248.324-.592.727-1.034 1.208-.441.472-1.034.892-1.777 1.265-.744.363-1.697.545-2.859.545-1.448 0-2.688-.341-3.717-1.021-1.031-.681-1.771-1.673-2.219-2.972-.443-1.301-.509-2.88-.198-4.737.301-1.827.883-3.418 1.742-4.772.867-1.363 1.937-2.415 3.207-3.158a8.032 8.032 0 0 1 4.159-1.126c1.163 0 2.053.194 2.673.58.628.379 1.085.813 1.372 1.301.285.479.503.874.649 1.184h.28l.464-2.833h2.65l-3.021 18.344c-.256 1.532-.81 2.778-1.663 3.738a7.5 7.5 0 0 1-3.136 2.124c-1.24.457-2.568.685-3.986.685Zm1.441-9.798c1.092 0 2.064-.252 2.916-.755.86-.503 1.573-1.227 2.138-2.171.565-.944.957-2.074 1.174-3.389.217-1.286.202-2.42-.047-3.403-.247-.982-.716-1.753-1.405-2.31-.682-.558-1.577-.836-2.684-.836-1.17 0-2.181.294-3.033.882-.844.589-1.529 1.378-2.056 2.368a10.734 10.734 0 0 0-1.093 3.299c-.201 1.237-.194 2.332.024 3.285.217.944.658 1.687 1.324 2.229.674.534 1.588.801 2.742.801Zm17.614 3.158c-1.13 0-2.122-.213-2.974-.638-.852-.434-1.483-1.057-1.893-1.869-.411-.822-.524-1.812-.338-2.973.178-1.022.523-1.85 1.035-2.485a5.446 5.446 0 0 1 1.858-1.508 9.632 9.632 0 0 1 2.371-.826c.852-.185 1.7-.328 2.545-.429 1.099-.139 1.994-.247 2.683-.325.69-.078 1.209-.205 1.557-.383.349-.179.562-.484.639-.917v-.093c.186-1.138.035-2.025-.453-2.659-.488-.642-1.359-.963-2.614-.963-1.302 0-2.389.286-3.265.859-.876.572-1.522 1.184-1.941 1.833l-2.416-.928c.635-1.083 1.394-1.927 2.277-2.531a8.425 8.425 0 0 1 2.777-1.277 11.273 11.273 0 0 1 2.8-.371c.573 0 1.221.069 1.94.209.72.131 1.395.405 2.022.824.635.417 1.111 1.049 1.429 1.893.326.843.372 1.973.139 3.389l-1.951 11.75h-2.743l.419-2.415h-.139c-.249.387-.628.801-1.139 1.242-.503.441-1.143.817-1.918 1.126-.766.311-1.668.465-2.707.465Zm.79-2.461c1.085 0 2.034-.213 2.848-.638.821-.427 1.479-.977 1.975-1.65.503-.672.817-1.381.941-2.124l.418-2.508c-.14.139-.415.267-.825.383-.411.108-.876.205-1.395.29a59.69 59.69 0 0 1-1.499.21c-.479.053-.867.099-1.161.139-.728.092-1.422.243-2.08.453-.651.201-1.2.506-1.65.916-.442.403-.716.953-.825 1.649-.163.953.066 1.672.686 2.159.62.481 1.475.721 2.567.721Zm16.95-8.685-1.766 10.728h-2.743l2.975-17.833h2.648l-.464 2.787h.232a6.32 6.32 0 0 1 2.266-2.183c.953-.558 2.104-.836 3.452-.836 1.192 0 2.198.247 3.019.743.83.487 1.415 1.23 1.755 2.229.349.991.399 2.245.152 3.762l-1.907 11.331h-2.741l1.859-11.146c.233-1.393.051-2.484-.547-3.274-.587-.789-1.521-1.184-2.799-1.184-.883 0-1.701.19-2.451.568a5.247 5.247 0 0 0-1.895 1.661c-.511.728-.86 1.61-1.045 2.647Zm14.631 10.728 2.973-17.833h2.743l-2.975 17.833h-2.741Zm5.182-20.852a1.95 1.95 0 0 1-1.383-.546 1.755 1.755 0 0 1-.57-1.311c0-.511.191-.949.57-1.313a1.95 1.95 0 0 1 1.383-.546c.534 0 .991.182 1.37.546.388.364.581.802.581 1.313 0 .51-.193.947-.581 1.311a1.907 1.907 0 0 1-1.37.546Zm9.785 21.224c-1.68 0-3.059-.395-4.136-1.184-1.068-.79-1.812-1.878-2.231-3.263-.417-1.386-.479-2.969-.185-4.749.293-1.811.891-3.409 1.789-4.795.898-1.393 2.018-2.481 3.358-3.262 1.34-.789 2.815-1.184 4.426-1.184 1.255 0 2.348.232 3.277.697.929.463 1.647 1.114 2.15 1.949.503.836.739 1.812.708 2.926h-2.742c-.077-.813-.426-1.532-1.045-2.159-.612-.635-1.519-.952-2.719-.952a5.484 5.484 0 0 0-2.951.836c-.9.549-1.654 1.328-2.267 2.334-.611.998-1.025 2.171-1.242 3.518-.233 1.377-.213 2.577.057 3.599.272 1.021.764 1.814 1.477 2.38.711.565 1.611.848 2.695.848.713 0 1.379-.125 1.999-.373a5.065 5.065 0 0 0 1.649-1.067 5.093 5.093 0 0 0 1.139-1.672h2.742a7.907 7.907 0 0 1-1.638 2.844 8.354 8.354 0 0 1-2.731 1.998c-1.068.487-2.262.731-3.579.731Zm31.198-18.205-.373 2.322h-9.62l.372-2.322h9.621Zm-9.714 17.833 3.392-20.294c.156-1.022.527-1.874 1.116-2.554a5.676 5.676 0 0 1 2.126-1.533 6.574 6.574 0 0 1 2.522-.511c.673 0 1.212.055 1.614.163.411.108.709.208.895.302l-1.161 2.368a33.261 33.261 0 0 0-.558-.175c-.225-.069-.535-.104-.93-.104-.906 0-1.595.228-2.068.685-.473.457-.79 1.127-.953 2.009l-3.253 19.644h-2.742Zm17.213.372c-1.642 0-3.017-.391-4.125-1.174-1.108-.781-1.889-1.876-2.346-3.285-.45-1.409-.524-3.049-.222-4.922.295-1.827.88-3.418 1.755-4.772.883-1.363 1.979-2.415 3.288-3.158 1.317-.75 2.765-1.126 4.345-1.126 1.643 0 3.014.395 4.113 1.184 1.108.781 1.891 1.881 2.348 3.297.457 1.409.534 3.058.232 4.946-.294 1.811-.886 3.394-1.778 4.749-.882 1.347-1.978 2.395-3.287 3.145-1.302.744-2.743 1.116-4.323 1.116Zm.047-2.461c1.255 0 2.342-.323 3.265-.965.929-.642 1.681-1.489 2.253-2.543.582-1.052.972-2.19 1.174-3.412.186-1.162.178-2.241-.023-3.24-.201-1.006-.631-1.814-1.29-2.427-.658-.619-1.584-.928-2.777-.928-1.254 0-2.35.325-3.288.975-.929.65-1.681 1.505-2.255 2.566a10.657 10.657 0 0 0-1.149 3.425c-.187 1.162-.182 2.241.012 3.239.201.991.631 1.793 1.289 2.404.666.604 1.595.906 2.789.906Zm19.476 2.461c-1.642 0-3.017-.391-4.125-1.174-1.108-.781-1.89-1.876-2.346-3.285-.45-1.409-.524-3.049-.222-4.922.294-1.827.879-3.418 1.755-4.772.883-1.363 1.979-2.415 3.288-3.158 1.317-.75 2.765-1.126 4.345-1.126 1.642 0 3.014.395 4.113 1.184 1.108.781 1.89 1.881 2.348 3.297.457 1.409.534 3.058.232 4.946-.294 1.811-.888 3.394-1.778 4.749-.883 1.347-1.978 2.395-3.288 3.145-1.301.744-2.742 1.116-4.322 1.116Zm.046-2.461c1.255 0 2.343-.323 3.265-.965.93-.642 1.68-1.489 2.254-2.543.581-1.052.972-2.19 1.173-3.412.187-1.162.179-2.241-.022-3.24-.202-1.006-.632-1.814-1.29-2.427-.658-.619-1.584-.928-2.777-.928-1.254 0-2.351.325-3.288.975-.93.65-1.681 1.505-2.255 2.566a10.659 10.659 0 0 0-1.15 3.425c-.186 1.162-.181 2.241.012 3.239.202.991.631 1.793 1.289 2.404.667.604 1.596.906 2.789.906Zm18.826 2.461c-1.496 0-2.75-.376-3.765-1.126-1.014-.759-1.731-1.828-2.15-3.206-.41-1.385-.46-3.022-.151-4.91.318-1.874.911-3.499 1.778-4.877.876-1.377 1.949-2.441 3.218-3.192a8.038 8.038 0 0 1 4.16-1.126c1.163 0 2.049.194 2.661.58.62.379 1.069.813 1.348 1.301.278.479.491.874.639 1.184h.232l1.464-8.778h2.742l-3.951 23.778h-2.648l.464-2.74h-.325c-.256.325-.611.735-1.068 1.231-.457.487-1.062.925-1.814 1.311-.743.379-1.688.57-2.834.57Zm.674-2.461c1.099 0 2.083-.287 2.95-.86.876-.58 1.604-1.382 2.185-2.403.581-1.029.984-2.218 1.209-3.564.223-1.332.216-2.497-.024-3.496-.24-1.006-.701-1.787-1.383-2.344-.681-.565-1.583-.848-2.707-.848-1.154 0-2.157.298-3.009.894-.852.589-1.545 1.389-2.079 2.403-.535 1.007-.907 2.136-1.117 3.391-.208 1.268-.213 2.422-.01 3.46.201 1.029.627 1.85 1.278 2.461.658.604 1.56.906 2.707.906Zm27.897-11.751-2.603.697a4.034 4.034 0 0 0-.489-1.207c-.223-.394-.572-.717-1.044-.964-.466-.256-1.101-.383-1.906-.383-1.093 0-2.041.251-2.847.755-.805.495-1.267 1.126-1.382 1.892-.117.674.038 1.211.464 1.614.426.402 1.139.732 2.138.987l2.556.651c1.534.394 2.626.986 3.277 1.776.658.781.882 1.799.673 3.053-.17 1.021-.615 1.934-1.336 2.739-.72.805-1.642 1.44-2.765 1.905-1.124.464-2.374.697-3.753.697-1.836 0-3.284-.395-4.345-1.184-1.062-.798-1.627-1.952-1.697-3.46l2.742-.651c.071.953.411 1.672 1.023 2.159.619.481 1.487.721 2.603.721 1.278 0 2.343-.271 3.195-.813.852-.55 1.336-1.208 1.452-1.974.116-.626-.008-1.15-.372-1.567-.356-.418-.976-.731-1.858-.94l-2.836-.697c-1.58-.395-2.688-.999-3.323-1.812-.627-.812-.837-1.833-.627-3.064a5.208 5.208 0 0 1 1.302-2.67c.704-.774 1.587-1.382 2.648-1.824 1.069-.441 2.231-.661 3.486-.661 1.766 0 3.087.386 3.961 1.16.876.767 1.431 1.788 1.663 3.065Zm8.496-9.938-.326 2.09c-.1.635-.329 1.313-.685 2.032a10.85 10.85 0 0 1-1.348 2.078 9.712 9.712 0 0 1-1.871 1.742l-1.301-1.208a17.615 17.615 0 0 0 1.615-2.171c.48-.758.794-1.567.942-2.427l.371-2.136h2.603Zm5.948 0-.325 2.09c-.101.635-.329 1.313-.685 2.032a10.802 10.802 0 0 1-1.348 2.078 9.712 9.712 0 0 1-1.871 1.742l-1.301-1.208a17.606 17.606 0 0 0 1.614-2.171 6.552 6.552 0 0 0 .942-2.427l.372-2.136h2.602Z" fill="#030404"/></g></g><defs><clipPath id="a"><path fill="#fff" transform="translate(275 361)" d="M0 0h445v258H0z"/></clipPath></defs></svg>